<svg id="Layer_1" data-name="Layer 1" xmlns="http://www.w3.org/2000/svg" viewBox="0 0 394.79 341.9"><defs><style>.cls-1,.cls-8{fill:#2c2a29;}.cls-1{stroke:#e4be6d;stroke-width:8px;}.cls-1,.cls-2,.cls-3,.cls-4,.cls-5,.cls-6,.cls-7,.cls-8,.cls-9{fill-rule:evenodd;}.cls-2{fill:#e5be6d;}.cls-3{fill:#f1d492;}.cls-4{fill:#9d6b37;}.cls-5{fill:#704834;}.cls-6{fill:#d7b56e;}.cls-7{fill:#7b5136;}.cls-9{fill:#b88e4a;}</style></defs><polygon class="cls-1" points="293.78 4 101.01 4 4.62 170.95 101.01 337.9 293.78 337.9 390.17 170.95 293.78 4"/><g id="Shield"><polygon class="cls-2" points="158.15 32.63 226.94 32.63 253.15 74.41 158.15 74.45 158.15 32.63"/><polygon class="cls-3" points="156.88 33.27 156.88 74.85 141.05 88.39 141.05 44.74 156.88 33.27"/><path class="cls-4" d="M347.25,373H320.49v-2.1h24.26c3-2.59,5.82-5.48,8.75-8.19l-.39-1H266.7c-3.33,2.58-6.57,5.36-9.82,8.1l.4,1,30,0v2.1h-38L264.8,359.5h95.39l-12.94,13.42Z" transform="translate(-107.08 -283.82)"/><path class="cls-5" d="M344.32,369.59H320.53c-.2-.84.28-2-.44-2.71L312.57,364l-16.46,0-8.47,2.89c-.6.68-.2,1.79-.32,2.67l-28.26,0,8.07-6.8h84.35Z" transform="translate(-107.08 -283.82)"/><path class="cls-6" d="M312,432.81c-4,1.79-8,3.46-12,5.2l-3-.95,0-71.8h14.92Z" transform="translate(-107.08 -283.82)"/><path class="cls-3" d="M295.71,436.62l-7.16-2.22,0-60.13c0-1.27-.08-2.78.08-4.09a8.21,8.21,0,0,1-.08-2.22l7.08-2.47.08.32v70.81Z" transform="translate(-107.08 -283.82)"/><path class="cls-7" d="M319.22,429.16c-2,1-4,2.18-6,3.06l0-66.69,6,2.35Z" transform="translate(-107.08 -283.82)"/><path class="cls-6" d="M323.78,429.55a157,157,0,0,1,47.1,22,10.89,10.89,0,0,1,3.92,7c1.7,6.43,3.05,13,4.19,19.73l3.09,20.81a16,16,0,0,1-.59,6l-7.8,20.49-3.32,8.23,2.89,13.1L376,561.53l1.29,6.53-2.13,1.71L368,533.13,379.59,502l-3.8-20.61a205.21,205.21,0,0,0-7.21-27.44l-12.43-6.32L335.93,437l-3.17-1.55-.39,2.42,14.05,7.71,15.47,8.62,1.83,1c5.34,15.33,6,32.65,6.57,50-.32,5-3.45,8.78-6.26,12.75-5.34,6.67-12.23,11.44-19.16,15.25l-23.63-16.8s0,0-.08,0l10,15.33,19.2,11.48,8.07-4.29c5.34,5.72,6.69,13.1,8,20.49l.91,7.11.75,7.93-5.83,3.47-7.86,4-11.8,4.74-13.52,3.75L318.7,592.2l-.19-6.17,0-10.92,1.82-3.42a19.69,19.69,0,0,1,.16-2.7V497.82c5.9-7.86,13.78-15.84,22.21-20.25l.08-1.27c-5.43-3.85-10.1-7.43-12.63-13.11a25.3,25.3,0,0,1-2.22-4.17c2.89-2.7,4-6.15,5.07-9.53-8.08,12-21.81,14.06-35.59,14.3-5.3-.72-10.17-5.52-12.19-10.37a22.62,22.62,0,0,0,8.91,6.36,54.59,54.59,0,0,0,16.31-9.85,6.83,6.83,0,0,0-3-6.95,17.78,17.78,0,0,0-6.3-2.31,101,101,0,0,0-17.53,8.23c-.08-.08-.08-.32-.16-.52l17.54-9.29c6.69-3,13.65-5.72,20.18-9.3a4.7,4.7,0,0,1,2.66-.16Z" transform="translate(-107.08 -283.82)"/><path class="cls-6" d="M298,438.69a47.83,47.83,0,0,0-12.43-.4,15.34,15.34,0,0,0-3.68,10.25h.27c.4,1.55,1,3.1,1.47,4.53-8.2,1.43-16.39,2.93-25,3.21a12.86,12.86,0,0,0,1.58,4.77l-.95.43-4.15-4.84A60.1,60.1,0,0,1,262,441.79a90.5,90.5,0,0,1,24.5-6.6L298,438.73Zm-17.62,11.6A35.45,35.45,0,0,1,271,451l-7.48,2.18c0-.39-.24-.67-.28-1,2.5-.83,5.31-1.55,8-2.34a25.11,25.11,0,0,0,9-.68l.2,1.19Z" transform="translate(-107.08 -283.82)"/><path class="cls-2" d="M296.42,439.8l-13.14,6.71a14.16,14.16,0,0,1,2.81-6.83,8.25,8.25,0,0,1,2.81-.4,51,51,0,0,1,7.48.52Z" transform="translate(-107.08 -283.82)"/><path class="cls-2" d="M308.93,446.55a6,6,0,0,1,.32,2.7,55.14,55.14,0,0,1-15.16,9.18,23.18,23.18,0,0,1-9.94-8.42,86.22,86.22,0,0,1,17-8.06c3,.59,6.26,1.54,7.72,4.6Z" transform="translate(-107.08 -283.82)"/><path class="cls-6" d="M290.8,462.32a32.79,32.79,0,0,0-.59,10.09c5.14,4.48,12,4.84,19,4.48a7,7,0,0,1-2,2.35,22.39,22.39,0,0,1-6.93.59l-26.48-2.58a50.84,50.84,0,0,1-20.38,6,45.15,45.15,0,0,0,2.93,4.05c-.4.24-.84.28-1.19.52l.16.27-3.84-4.52a34.27,34.27,0,0,1,2.33-18.43c9.7-4.85,20.55-7,31.43-9.06a22,22,0,0,0,5.58,6.2Zm-4,4.29a20.69,20.69,0,0,0,.32,8.1c-4.59.08-8.79-.91-13.38-1a97.43,97.43,0,0,0-14.64,5.08l-.48-1a75.67,75.67,0,0,1,15.44-5.24c4,0,7.56.83,11.48,1a30.91,30.91,0,0,1,0-7.19l1.18.2Z" transform="translate(-107.08 -283.82)"/><path class="cls-2" d="M309.57,465.34a18.61,18.61,0,0,1,.07,10.28c-6.57.4-13.3.2-18.24-3.85a31.68,31.68,0,0,1,.51-8.7C296.86,466,303.55,466.25,309.57,465.34Z" transform="translate(-107.08 -283.82)"/><path class="cls-5" d="M319.22,568.83h-6V465.18c2-.24,4-.52,6-.92Z" transform="translate(-107.08 -283.82)"/><path class="cls-4" d="M340,477.49c-7.21,4.33-14.14,11.24-19.48,18.11l0-30.62C324.65,472,331.77,477.41,340,477.49Z" transform="translate(-107.08 -283.82)"/><path class="cls-6" d="M312,568.83H297V523.36c4.23-1.23,8.59-2.54,11.52-6.35,1.22-2.07.91-5,.75-7.47a40.78,40.78,0,0,0-.95-4.25c-1.15-1.23-2.69-1.71-4-2.46,2.42-1.27,5.34-3.46,6.06-6.28,1.66-3.65,2-8.85-.44-12.27-1.3-1.35-3.16-1.55-4.79-2.1a12.38,12.38,0,0,0,5.58-5.21,22.16,22.16,0,0,0,.2-11.71c.4,0,.67-.08,1,0l0,103.61Z" transform="translate(-107.08 -283.82)"/><path class="cls-6" d="M302.64,482.93a20.31,20.31,0,0,1,4.51,1.23c-5-.28-10.49-1.19-15.44-.08-1.9.48-1.66,2.66-2.1,4.09-.15,2.51-.75,5.68,1.27,7.55l1.51,1.31,15.87.91a.93.93,0,0,1-.56.76l-20,3a63.21,63.21,0,0,1-15,.15c-6,4.69-13.26,6.68-20.66,8.27a7.08,7.08,0,0,0,3.68,3.49,7.1,7.1,0,0,1-1.66.95l-4.32-4.8c-1-5.09-1.26-11.44,1.23-15.93l5-5c7.52-3,14.76-6.71,23.27-7.43,8,.2,15.76.68,23.44,1.51Zm-16.47,5.56a26.23,26.23,0,0,0,.28,9l-14.57-.24a71.86,71.86,0,0,0-10.69,4.68l-.51-1A58.63,58.63,0,0,1,272,496l13,.31a32.62,32.62,0,0,1,0-8Z" transform="translate(-107.08 -283.82)"/><path class="cls-2" d="M309.21,485.47c2,3.26,1.27,8-.28,11.24-5.34-.24-10.77-.55-16.15-.91-3-1.75-2.22-5.68-1.78-8.46.4-.76,0-2.11,1.31-2.19,5.54-.91,11.28,0,16.9.28Z" transform="translate(-107.08 -283.82)"/><path class="cls-6" d="M306.32,505.29c-5.34.16-10.57.79-15.87,1.27-1.47,3.1-1,7.27.15,10.37a75.87,75.87,0,0,0,17.07-1.23c-9.58,6.07-21.78,6.51-33.69,7.22-2.73.8-5.54,1.35-8,2.82-1,.84-2.41,1-3.52,1.67-.51,3.3.83,6.08,3,8.46.24-.4,1.07-.6.71-1.07a8.82,8.82,0,0,1-2.57-6.52c.95-.35,1.9-.67,2.89-1,6.81-1,13.81-1.67,20.78-2.26,0,1.07,0,2.14,0,3.22-1.58.23-3.44.15-5.15.27-3.08,2.07-6.25,4-9.38,6.12l9.78,7.27,2.22,7.19,2.45,1.74,0,7.71c-12.83-6.16-26.4-17.2-33.49-30.3a36.39,36.39,0,0,1,1.07-12.67c5-2.78,9.74-6.48,15.16-8.58l2.73-.6,29.41-2.58c.28,0,.72-.2,1.07,0l3.09,1.59Zm-20.07,3.77c-1.27,2.78-.4,6.44.24,9.3a39.23,39.23,0,0,0-13.06,1.15c-.24-.2-.24-.72-.4-1,3.68-1.2,7.8-1.35,12-1.35-.55-2.59-.91-6,.24-8.46l1,.43Z" transform="translate(-107.08 -283.82)"/><path class="cls-2" d="M307.9,514.42a80.86,80.86,0,0,1-16.31,1.35,12.38,12.38,0,0,1-.19-8c5.22-.55,10.49-1,15.87-1.27.59,2.5,1.23,5.24.67,7.94Z" transform="translate(-107.08 -283.82)"/><polygon class="cls-8" points="214.56 253.05 214.52 235.89 222 248.44 214.56 253.05"/><path class="cls-3" d="M295.71,568.83l-7.16,0v-44c2.33-.32,4.75-.68,7-1.23l.08.32v44.87Z" transform="translate(-107.08 -283.82)"/><polygon class="cls-8" points="229.6 256.5 227.93 267.7 214.52 275.53 214.52 265.44 229.6 256.5"/><polygon class="cls-4" points="182.65 286.25 206.08 286.25 203.35 291.57 189.5 291.57 182.65 286.25"/><path class="cls-6" d="M315.66,574.87c-.2,4.17-.36,13.54-.56,17.71l-10.2.5-10.76-.41.46-17.24c1,1.23,2.5,1.23,4,1.15h14c1-.56,2-1.23,3-1.75Z" transform="translate(-107.08 -283.82)"/><polygon class="cls-4" points="242.94 259.48 245.68 298.92 236.73 302.49 234.5 254.36 242.94 259.48"/><path class="cls-2" d="M271.37,448.74c3-5.37,6-6.79,10.09-7.51-.71,2.3-1.7,4.61-1.11,6.91C276.71,449,274.77,448.82,271.37,448.74Zm.59,22.95a72.46,72.46,0,0,1,13,1.11c-1-3.09-.39-6.23-.08-9.33-.47-.63-.91-1.27-1.38-1.87a28.59,28.59,0,0,0-8.95.76,15.29,15.29,0,0,0-2.57,9.33Zm-.75,23.71a42.39,42.39,0,0,1,12.82,0,23.36,23.36,0,0,1,.16-8.58c-3.13-.43-6.21-.75-9.06,0-.87.36-1.9.56-2.22,1.51a17.93,17.93,0,0,0-1.66,7.11ZM273,517.52a12.74,12.74,0,0,1,.24-4.76,2.93,2.93,0,0,1,2.21-1.87c2.93-.68,5.86-1.31,8.83-2a18.39,18.39,0,0,0-.51,7.47A25,25,0,0,0,273,517.52Z" transform="translate(-107.08 -283.82)"/><path class="cls-2" d="M344.91,475.27c-6.88-2.67-11.79-10-16.46-16,2.13-1.67,2.73-2.82,3.64-5.4,5.7,4.45,12.51,9.25,17.73,14.3,4,3.85,4.91,9.69,1.11,13.1-19.71,17.76-18.49,23.35-4.79,48.93-15.56-6.08-27.31-14.89-18.37-33.08,3.76-7.63,11.44-12.55,17.14-18.87.79-.87,2.46-2.06,0-3Z" transform="translate(-107.08 -283.82)"/><path class="cls-4" d="M342.7,477.93h1.18c-6.61,5.48-13.93,10.88-17.93,19.73-3.48,7.67-1.54,14.9,1.07,21.25-5.38-6.23-7.36-10.76-4-20.13,3.29-9.1,11.76-15,19.68-20.81Z" transform="translate(-107.08 -283.82)"/><polygon class="cls-4" points="214.44 277.19 227.42 270.16 229.01 304.7 222.06 306.63 212.65 308.25 212.46 290.62 214.44 287.04 214.44 277.19"/><path class="cls-9" d="M352.59,527.69c-2.17-1.75.71-4.49,3.49-8.14l9-12.63,0-.16A162,162,0,0,0,364,482c-1-8.26-2.49-16.52-4.31-24.78l0-.16-.12-.08-25.37-11.24-.24-.08-.16.2a40.77,40.77,0,0,0-2.57,4.21c-.75,1.31-1.47,2.58-2.3,3.81a31.38,31.38,0,0,1-13.54,7.43,68.74,68.74,0,0,1-16.07,2.14,37.06,37.06,0,0,1-4.11-1.19,40.69,40.69,0,0,1-4.12-1.71l-.12-.12c.4,0,.83-.08,1.23-.16.63-.08,1.23-.16,1.82-.27a0,0,0,0,1,0,0l.47-.12a65.13,65.13,0,0,0,19.64-7.15,95.21,95.21,0,0,0,19-14.14l13.1,7.19c5.38,3,11.8,6.31,17.14,10,3.32,9.33,5.15,22.16,5.78,31.57.39,5.92.63,11.87.79,17.83-.28,4.41-2.85,7.9-5.38,11.44-.32.4-.6.83-.83,1.15a51.91,51.91,0,0,1-8,7.9c-.91.72-1.82,1.39-2.73,2.07h-.44Z" transform="translate(-107.08 -283.82)"/><path class="cls-9" d="M287,557.12V551.2l-2.37-1.75-2.34-7.34-9.93-7.47,9.73-6.32,4.87-.39V525.5c-6.25.4-12.9,1-20.34,2-.91.36-1.78.72-2.69,1.07a9.49,9.49,0,0,0,2.25,6.2l20.74,22.36Z" transform="translate(-107.08 -283.82)"/></g></svg>